<svg width="48" height="41" viewBox="0 0 48 41" fill="none" xmlns="http://www.w3.org/2000/svg">
<path opacity="0.7" d="M21.3119 38.469C21.8769 37.885 22.4309 37.29 23.1569 36.916C25.4499 35.727 28.3939 36.813 30.8189 37.157C37.9959 38.178 44.7349 33.306 46.9799 27.023C48.7029 22.201 42.8369 19.068 43.8389 14.235C44.7039 10.066 43.7119 4.34701 38.0379 1.84801C32.3639 -0.649994 29.1249 -0.355028 24.3589 3.20097C19.5929 6.75597 14.7429 4.81098 9.3709 5.08598C3.9989 5.36098 0.561898 9.44096 0.784898 13.535C1.0179 17.807 5.24495 20.727 6.26195 24.796C6.78795 26.902 6.10593 29.104 6.12193 31.232C6.14193 33.551 6.61491 36.024 8.41191 37.758C11.5429 40.781 17.0669 42.291 20.5739 39.19C20.8289 38.963 21.0719 38.717 21.3119 38.469Z" fill="white"/>
</svg>
